<svg width="312" height="122" viewBox="0 0 312 122" fill="none" xmlns="http://www.w3.org/2000/svg">
<path fill-rule="evenodd" clip-rule="evenodd" d="M89.4149 80.1581C88.8947 73.0065 89.6461 64.2727 92.3079 53.661C102.127 14.4943 132.541 -7.16636 148.852 2.1494C148.852 2.1494 158.083 7.13689 145.317 27.0064C135.758 41.8853 120.217 63.4399 104.002 82.2547C103.996 82.3029 103.986 82.3512 103.98 82.3994C108.022 119.888 119.649 94.4903 126.835 78.6692C129.224 73.4084 130.942 64.903 135.8 66.4465C139.1 67.4948 142.761 68.8068 141.024 74.0966C139.287 79.3863 136.949 90.9402 139.894 95.3553C143.092 100.143 151.437 99.8347 155.328 97.8539C159.22 95.873 159.519 95.5933 160.299 96.4647C161.079 97.3361 160.016 100.349 155.303 103.43C150.589 106.51 131.706 112.154 127.602 89.4674C127.602 89.4674 119.068 112.418 108.863 109.408C103.668 107.874 96.922 103.603 92.8505 94.6061C76.918 111.353 61.5089 123.399 51.6289 121.859C40.0472 120.052 45.6823 95.1688 45.6823 95.1688C45.6823 95.1688 29.7048 111.295 14.787 109.189C0.886948 107.228 -4.84452 94.5289 4.7593 77.8139C14.3631 61.0989 22.5991 58.0922 29.6759 55.0759C36.7528 52.0629 49.2625 53.3395 48.6203 59.8383C48.479 61.2725 47.2428 62.1215 44.4333 60.1149C41.6237 58.1083 38.8527 58.4427 34.7139 61.295C30.5782 64.1505 16.6236 78.3059 11.5472 95.7283C6.47393 113.151 27.4187 100.857 35.69 90.3485C43.9613 79.8397 52.1748 67.1765 54.7756 60.8352C57.3796 54.4971 57.9223 54.0212 60.7222 53.7189C63.5221 53.4167 68.4412 53.7607 66.0748 59.5039C63.7051 65.2471 61.069 71.8649 57.4407 86.911C53.8155 101.957 50.5019 117.534 56.1178 113.244C59.1778 110.913 73.4117 96.8924 89.4149 80.1581ZM226.357 92.6734C226.248 92.204 226.151 91.7248 226.065 91.236C220.622 60.0924 250.191 35.4347 266.41 49.6736C278.293 64.1409 259.281 80.5954 241.169 92.0271C245.741 100.346 255.785 103.542 266.172 104.288C280.361 105.308 307.423 95.0562 308.379 94.561C309.34 94.0658 311.35 93.1976 311.921 95.3006C312.493 97.4037 309.773 98.6063 309.773 98.6063C286.86 111.061 241.525 120.402 228.926 99.1819C223.962 101.886 219.813 103.941 217.447 105.134C205.704 111.054 185.447 116.209 172.452 107.662C159.458 99.1176 166.123 80.1935 171.868 71.3793C184.644 51.7702 206.138 53.1755 209.699 53.8701C213.26 54.5647 213.028 57.6324 211.506 59.7258C209.984 61.8192 206.379 61.2178 206.379 61.2178C193.365 62.7324 184.005 79.113 180.547 92.5609C177.089 106.009 182.107 107.893 193.111 105.523C199.918 104.067 213.96 98.4134 226.357 92.6734ZM239.127 86.4029C241.532 85.1359 243.644 83.9526 245.337 82.9139C256.639 75.9809 270.43 60.5779 261.995 54.9312C253.56 49.2813 238.754 63.7454 238.597 80.7112C238.581 82.7724 238.764 84.6664 239.127 86.4029ZM103.954 64.7036C112.691 55.2496 121.126 45.7827 127.795 37.7017C150.541 10.1435 146.389 7.76073 142.979 8.21413C136.044 9.13381 108.019 30.2092 103.925 64.6875C103.935 64.694 103.944 64.6972 103.954 64.7036ZM156.208 44.8051C154.844 45.773 152.862 45.5544 153.261 48.5449C153.659 51.5355 158.655 54.0405 162.168 51.8603C165.677 49.6801 167.148 42.6989 162.524 40.9817C157.904 39.2645 158.051 43.4996 156.208 44.8051Z" fill="black"/>
</svg>
