<?xml version="1.0" encoding="utf-8"?>
<svg width="700" height="700" viewBox="0 0 700 700" version="1.1" id="svg24" style="fill:none" xmlns="http://www.w3.org/2000/svg" xmlns:bx="https://boxy-svg.com">
  <defs id="defs28">
    <bx:grid x="16.755" y="-5.585" width="400.665" height="285.239"/>
  </defs>
  <path d="M 353.157 368.817 C 350.301 371.458 346.509 372.785 341.787 372.785 C 339.964 372.785 338.179 372.512 336.42 371.96 C 336.293 371.924 336.167 371.869 336.04 371.828 C 327.31 391.567 306.953 405.411 283.228 405.411 C 271.404 405.411 260.428 401.965 251.3 396.068 C 250.769 395.724 250.111 395.627 249.496 395.82 L 231.227 401.474 L 236.697 383.734 C 236.868 383.181 236.76 382.594 236.412 382.127 C 229.778 373.13 225.873 362.146 225.873 350.282 C 225.873 319.83 251.553 295.146 283.228 295.146 C 307.087 295.146 327.539 309.149 336.186 329.07 C 338.667 327.228 341.718 326.307 345.338 326.307 C 346.965 326.307 348.656 326.519 350.403 326.949 C 351.213 327.149 352.029 327.397 352.866 327.689 C 343.06 299.763 315.588 279.654 283.228 279.654 C 242.647 279.654 209.75 311.274 209.75 350.288 C 209.75 363.14 213.339 375.172 219.574 385.55 L 207.199 421.776 C 206.667 423.34 208.212 424.824 209.845 424.322 L 248.274 412.428 C 258.668 417.838 270.575 420.917 283.223 420.917 C 317.702 420.917 346.637 398.08 354.549 367.29 C 354.137 367.81 353.682 368.331 353.157 368.817 Z" id="path2" style="fill: rgb(0, 58, 93); stroke-width: 5.0043;"/>
  <path d="M 256.226 367.327 C 255.174 367.763 254.156 368.091 253.162 368.309 C 252.175 368.527 251.187 368.636 250.206 368.636 C 248.275 368.636 246.426 368.261 244.661 367.514 C 242.888 366.77 241.268 365.686 239.799 364.256 C 238.045 362.529 236.741 360.433 235.881 357.979 C 235.02 355.525 234.596 352.616 234.596 349.259 C 234.596 343.71 236.027 339.19 238.894 335.712 C 241.761 332.235 245.421 330.491 249.871 330.491 C 250.971 330.491 252.053 330.581 253.117 330.756 C 254.18 330.932 255.219 331.186 256.231 331.526 L 256.231 340.335 C 255.566 339.984 254.901 339.717 254.231 339.529 C 253.567 339.347 252.927 339.25 252.314 339.25 C 250.174 339.25 248.553 340.111 247.452 341.832 C 246.351 343.553 245.794 346.078 245.794 349.417 C 245.794 352.575 246.344 355.011 247.439 356.725 C 248.534 358.44 250.079 359.306 252.079 359.306 C 252.813 359.306 253.528 359.203 254.219 359.003 C 254.909 358.802 255.58 358.506 256.231 358.124 L 256.231 367.327 L 256.226 367.327 Z" id="path4" style="fill: rgb(0, 58, 93); stroke-width: 5.0043;"/>
  <path d="M 280.894 358.894 C 280.506 361.912 279.286 364.293 277.228 366.025 C 275.171 367.765 272.526 368.631 269.304 368.631 C 265.518 368.631 262.599 367.462 260.548 365.123 C 258.498 362.783 257.473 359.451 257.473 355.12 C 257.473 350.775 258.504 347.4 260.574 345.008 C 262.644 342.614 265.537 341.408 269.247 341.408 C 273.297 341.408 276.317 342.476 278.317 344.602 C 280.318 346.735 281.311 349.946 281.311 354.241 C 281.311 354.744 281.305 355.125 281.299 355.387 C 281.293 355.646 281.266 355.883 281.235 356.101 L 266.986 356.101 L 266.986 356.452 C 266.986 358.35 267.208 359.707 267.657 360.53 C 268.106 361.354 268.835 361.76 269.854 361.76 C 270.607 361.76 271.216 361.523 271.684 361.057 C 272.146 360.585 272.487 359.863 272.696 358.894 L 280.894 358.894 Z M 266.986 351.776 L 272.747 351.776 C 272.747 350.315 272.506 349.218 272.025 348.491 C 271.544 347.764 270.822 347.395 269.854 347.395 C 269.1 347.395 268.493 347.753 268.025 348.468 C 267.563 349.177 267.215 350.279 266.986 351.776 Z" id="path6" style="fill: rgb(0, 58, 93); stroke-width: 5.0043;"/>
  <path d="M 282.462 367.9 L 282.462 342.132 L 291.609 342.132 L 291.609 345.731 C 292.45 344.422 293.482 343.41 294.697 342.683 C 295.913 341.962 297.325 341.532 298.913 341.398 L 298.913 350.48 L 298.704 350.48 C 296.305 350.48 294.629 350.911 293.673 351.777 C 292.717 352.643 292.242 354.183 292.242 356.393 L 292.242 367.894 L 282.462 367.894 L 282.462 367.9 Z" id="path8" style="fill: rgb(0, 58, 93); stroke-width: 5.0043;"/>
  <path d="M 303.454 367.903 L 303.454 350.29 L 300.22 350.29 L 300.22 342.135 L 303.454 342.135 L 303.454 334.561 L 313.259 334.561 L 313.259 342.135 L 316.753 342.135 L 316.753 350.29 L 313.259 350.29 L 313.259 367.903 L 303.454 367.903 Z" id="path10" style="fill: rgb(0, 58, 93); stroke-width: 5.0043;"/>
  <path d="M 332.907 355.713 C 334.432 356.87 335.838 357.749 337.129 358.355 C 338.414 358.96 339.54 359.263 340.509 359.263 C 341.369 359.263 342.073 359.021 342.622 358.537 C 343.173 358.052 343.452 357.44 343.452 356.7 C 343.452 355.828 342.522 354.556 340.667 352.879 C 340.616 352.83 340.578 352.793 340.56 352.774 C 337.35 349.939 335.293 347.74 334.381 346.184 C 333.47 344.625 333.013 342.936 333.013 341.124 C 333.013 338.021 334.116 335.465 336.312 333.459 C 338.509 331.454 341.338 330.453 344.788 330.453 C 346.136 330.453 347.536 330.629 348.979 330.981 C 350.422 331.333 351.916 331.859 353.46 332.568 L 353.46 342.106 C 352.182 341.13 350.978 340.397 349.858 339.907 C 348.737 339.409 347.713 339.161 346.782 339.161 C 345.978 339.161 345.326 339.367 344.839 339.779 C 344.344 340.191 344.104 340.724 344.104 341.378 C 344.104 342.318 345.022 343.474 346.863 344.85 C 347.004 344.965 347.112 345.05 347.181 345.105 C 350.371 347.552 352.441 349.57 353.384 351.157 C 354.334 352.744 354.802 354.611 354.802 356.756 C 354.802 360.342 353.618 363.226 351.251 365.402 C 348.884 367.576 345.75 368.662 341.838 368.662 C 340.332 368.662 338.851 368.437 337.395 367.983 C 335.938 367.529 334.438 366.825 332.9 365.868 L 332.9 355.713 L 332.907 355.713 Z" id="path12" style="fill: rgb(255, 164, 0); stroke-width: 5.0043;"/>
  <path d="M 356.296 333.343 C 356.296 331.767 356.86 330.446 357.981 329.381 C 359.101 328.313 360.48 327.781 362.107 327.781 C 363.734 327.781 365.101 328.313 366.209 329.381 C 367.31 330.446 367.868 331.767 367.868 333.343 C 367.868 334.888 367.31 336.196 366.196 337.282 C 365.082 338.366 363.722 338.905 362.107 338.905 C 360.48 338.905 359.101 338.366 357.981 337.293 C 356.86 336.22 356.296 334.906 356.296 333.343 Z M 357.214 367.921 L 357.214 342.152 L 366.969 342.152 L 366.969 367.921 L 357.214 367.921 Z" id="path14" style="fill: rgb(255, 164, 0); stroke-width: 5.0043;"/>
  <path d="M 382.81 342.103 L 392.064 342.103 L 392.064 366.738 C 392.064 370.095 391.02 372.682 388.937 374.512 C 386.855 376.341 383.893 377.257 380.05 377.257 C 376.74 377.257 374.195 376.554 372.416 375.142 C 370.638 373.731 369.631 371.621 369.404 368.798 L 377.582 368.798 C 377.632 369.502 377.874 370.058 378.303 370.459 C 378.734 370.859 379.316 371.064 380.05 371.064 C 380.943 371.064 381.626 370.774 382.101 370.198 C 382.576 369.616 382.81 368.774 382.81 367.672 L 382.81 363.292 C 381.987 364.43 381.082 365.284 380.088 365.848 C 379.101 366.412 377.986 366.69 376.765 366.69 C 374.208 366.69 372.201 365.582 370.757 363.357 C 369.314 361.134 368.587 358.038 368.587 354.057 C 368.587 350.064 369.302 346.962 370.727 344.744 C 372.157 342.534 374.151 341.425 376.708 341.425 C 377.879 341.425 378.961 341.691 379.943 342.218 C 380.924 342.745 381.88 343.563 382.81 344.672 L 382.81 342.103 Z M 378.285 354.154 C 378.285 355.881 378.474 357.189 378.86 358.08 C 379.247 358.971 379.822 359.413 380.594 359.413 C 381.33 359.413 381.88 358.982 382.253 358.116 C 382.621 357.25 382.804 355.929 382.804 354.154 C 382.804 352.391 382.614 351.058 382.24 350.155 C 381.861 349.246 381.317 348.797 380.594 348.797 C 379.841 348.797 379.266 349.253 378.873 350.167 C 378.481 351.081 378.285 352.408 378.285 354.154 Z" id="path16" style="fill: rgb(255, 164, 0); stroke-width: 5.0043;"/>
  <path d="M 394.292 367.914 L 394.292 342.146 L 403.646 342.146 L 403.646 345.97 C 404.558 344.509 405.628 343.431 406.856 342.734 C 408.084 342.036 409.527 341.691 411.192 341.691 C 413.223 341.691 414.767 342.273 415.831 343.431 C 416.889 344.587 417.42 346.291 417.42 348.538 L 417.42 367.914 L 407.749 367.914 L 407.749 352.913 C 407.749 352.125 407.591 351.531 407.273 351.137 C 406.958 350.743 406.481 350.544 405.856 350.544 C 405.279 350.544 404.818 350.768 404.475 351.223 C 404.134 351.677 403.963 352.288 403.963 353.058 L 403.963 367.902 L 394.292 367.902 L 394.292 367.914 Z" id="path18" style="fill: rgb(255, 164, 0); stroke-width: 5.0043;"/>
  <path d="M 324.849 340.015 C 328.01 340.015 330.572 337.563 330.572 334.538 C 330.572 331.513 328.01 329.06 324.849 329.06 C 321.688 329.06 319.126 331.513 319.126 334.538 C 319.126 337.563 321.688 340.015 324.849 340.015 Z" id="path20" style="fill: rgb(0, 58, 93); stroke-width: 5.0043;"/>
  <path d="M 327.326 341.048 L 322.375 341.048 C 319.932 341.048 317.951 342.946 317.951 345.285 L 317.951 352.906 C 317.951 354.348 318.584 355.639 319.596 356.554 C 319.888 356.82 320.096 357.159 320.172 357.54 L 321.73 365.733 C 321.926 366.799 322.691 367.787 323.876 367.787 L 325.818 367.787 C 327.003 367.787 327.756 366.817 327.965 365.733 L 329.516 357.589 C 329.593 357.178 329.819 356.814 330.13 356.524 C 331.124 355.609 331.744 354.33 331.744 352.906 L 331.744 345.285 C 331.75 342.946 329.769 341.048 327.326 341.048 Z" id="path22" style="fill: rgb(0, 58, 93); stroke-width: 5.0043;"/>
</svg>